<svg xmlns="http://www.w3.org/2000/svg" width="43.467" height="43.475" viewBox="0 0 43.467 43.475">
  <g id="airport-transportation" transform="translate(0.479 0.5)">
    <g id="Group_99" data-name="Group 99" transform="translate(0.021)">
      <path id="Path_2622" data-name="Path 2622" d="M41.2,29.309l-16.4-16.4V5.632a8.028,8.028,0,0,0-.757-3.385l-.373-.708a2.653,2.653,0,0,0-4.8-.041l-.412.787a7.993,7.993,0,0,0-.738,3.346v7.274l-16.4,16.4a4.391,4.391,0,0,0-1.3,3.127v2.074a.884.884,0,0,0,1.363.743L18.059,24.564c.165,2.677.388,4.912.66,7.632L19,34.982l-6.195,4.093a.887.887,0,0,0-.4.74v1.769a.886.886,0,0,0,1.076.865l7.771-1.729,7.771,1.729a.882.882,0,0,0,.745-.173.894.894,0,0,0,.331-.692V39.815a.88.88,0,0,0-.4-.738l-6.195-4.087.281-2.8c.272-2.716.5-4.949.66-7.626L41.125,35.249a.885.885,0,0,0,1.363-.743V32.432A4.386,4.386,0,0,0,41.2,29.309Z" transform="translate(-0.021)" fill="none" stroke="#000" stroke-miterlimit="10" stroke-width="1"/>
    </g>
  </g>
</svg>
