<svg xmlns="http://www.w3.org/2000/svg" width="278" height="88" viewBox="0 0 278 88">
  <g id="app-store" transform="translate(-995 -4398)">
    <g id="Group_53" data-name="Group 53" transform="translate(995 4397.541)">
      <rect id="Rectangle_20" data-name="Rectangle 20" width="278" height="88" rx="10" transform="translate(0 0.458)"/>
      <text id="download_on_the" data-name="download on the" transform="translate(163 32.458)" fill="#fff" font-size="17" font-family="CeraPro-Regular, Cera Pro"><tspan x="-70.482" y="0">Download On The</tspan></text>
      <text id="App_store" data-name="App store" transform="translate(159 65.458)" fill="#fff" font-size="28" font-family="CeraPro-Bold, Cera Pro" font-weight="700"><tspan x="-65.996" y="0">App Store</tspan></text>
    </g>
    <g id="apple" transform="translate(1024.014 4420.01)">
      <path id="Path_2590" data-name="Path 2590" d="M57.857,151.453c-6.477-.037-11.835-13.26-11.835-19.994,0-11,8.252-13.408,11.432-13.408a13.155,13.155,0,0,1,4.313,1.061,9.641,9.641,0,0,0,2.463.706A7.665,7.665,0,0,0,66,119.245a14.161,14.161,0,0,1,5.326-1.287h.012a10.916,10.916,0,0,1,9.135,4.613l.666,1-.959.723c-1.37,1.033-3.869,2.919-3.869,6.653a7.509,7.509,0,0,0,4.19,6.942c.6.361,1.222.733,1.222,1.548,0,.532-4.244,11.949-10.406,11.949a8.368,8.368,0,0,1-3.514-.853,7.125,7.125,0,0,0-3.128-.753,8.046,8.046,0,0,0-2.477.67,12.13,12.13,0,0,1-4.3,1Z" transform="translate(-46.022 -107.931)" fill="#fff"/>
      <path id="Path_2591" data-name="Path 2591" d="M263.331,0c.16,5.787-3.978,9.8-8.111,9.549C254.538,4.931,259.352,0,263.331,0Z" transform="translate(-237.377)" fill="#fff"/>
    </g>
  </g>
</svg>
