<svg xmlns="http://www.w3.org/2000/svg" width="68.536" height="55.468" viewBox="0 0 68.536 55.468">
  <g id="asap-ryde" transform="translate(-53.006 -296.468)">
    <path id="Path_4355" data-name="Path 4355" d="M64.489,337.522h37.67a5.253,5.253,0,0,0,5.254-5.254V321.761a5.9,5.9,0,0,0-.294-2.193l-1.83-2.744a1.752,1.752,0,0,1,1.033-2.671L110.916,313a1.752,1.752,0,0,0,1.751-1.751v-3.5A1.752,1.752,0,0,0,110.916,306H103.1a1.753,1.753,0,0,0-1.457.779l-2.315,3.474c-.338.464-3.76,2.751-5.921,2.751H77.457" transform="translate(7.875 6.409)" fill="none" stroke="#fff" stroke-linecap="round" stroke-miterlimit="10" stroke-width="2"/>
    <path id="Path_4356" data-name="Path 4356" d="M70,300a114.121,114.121,0,0,1,17.307,1.457,6.937,6.937,0,0,1,3.707,2.045c.806.954,5.014,9.992,5.014,9.992" transform="translate(12.015 1.902)" fill="none" stroke="#fff" stroke-linecap="round" stroke-miterlimit="10" stroke-width="2"/>
    <path id="Path_4357" data-name="Path 4357" d="M91.259,314h0a11.955,11.955,0,0,1-8.457,3.5H79" transform="translate(18.776 12.419)" fill="none" stroke="#fff" stroke-linecap="round" stroke-miterlimit="10" stroke-width="2"/>
    <path id="Path_4358" data-name="Path 4358" d="M94.761,323.232v6.6a1.752,1.752,0,0,1-1.751,1.751H80.751A1.752,1.752,0,0,1,79,329.831v-5.254" transform="translate(18.776 19.354)" fill="none" stroke="#fff" stroke-linecap="round" stroke-miterlimit="10" stroke-width="2"/>
    <line id="Line_49" data-name="Line 49" x2="22.132" transform="translate(75.644 336.926)" fill="none" stroke="#fff" stroke-linecap="round" stroke-miterlimit="10" stroke-width="2"/>
    <path id="Path_4359" data-name="Path 4359" d="M83.505,315.905H73.636l4.338-18.437H57.693l-3.687,31.343,10.4-2.393-1.177,24.518Z" transform="translate(0)" fill="none" stroke="#fff" stroke-linecap="round" stroke-linejoin="round" stroke-width="2"/>
  </g>
</svg>
