<svg xmlns="http://www.w3.org/2000/svg" width="235" height="74" viewBox="0 0 235 74">
  <g id="f-app-store" transform="translate(-1058 -7522)">
    <g id="Group_68" data-name="Group 68" transform="translate(1058 7522)">
      <rect id="Rectangle_20" data-name="Rectangle 20" width="235" height="74" rx="10" transform="translate(0 0)" fill="#fff"/>
      <path id="Path_4398" data-name="Path 4398" d="M-54.588,0V-9.8h2.707q5.182,0,5.182,4.778a4.815,4.815,0,0,1-1.439,3.647A5.338,5.338,0,0,1-51.991,0Zm1.148-8.764v7.725h1.463a4.152,4.152,0,0,0,3-1.032A3.869,3.869,0,0,0-47.9-5q0-3.767-4.006-3.767ZM-42,.164a3.247,3.247,0,0,1-2.478-.981,3.634,3.634,0,0,1-.926-2.6,3.785,3.785,0,0,1,.964-2.755,3.465,3.465,0,0,1,2.6-.991,3.14,3.14,0,0,1,2.444.964,3.822,3.822,0,0,1,.878,2.673,3.761,3.761,0,0,1-.947,2.683A3.317,3.317,0,0,1-42,.164Zm.082-6.385a2.132,2.132,0,0,0-1.709.735,3.018,3.018,0,0,0-.629,2.027A2.854,2.854,0,0,0-43.617-1.5a2.161,2.161,0,0,0,1.7.718,2.049,2.049,0,0,0,1.671-.7,3.055,3.055,0,0,0,.584-2,3.108,3.108,0,0,0-.584-2.023A2.04,2.04,0,0,0-41.915-6.221ZM-27.9-7-30,0h-1.162L-32.6-5.011a3.265,3.265,0,0,1-.109-.649h-.027a3.066,3.066,0,0,1-.144.636L-34.45,0h-1.121L-37.69-7h1.176l1.449,5.264a3.171,3.171,0,0,1,.1.629h.055a2.942,2.942,0,0,1,.123-.643L-33.178-7h1.025L-30.7-1.723a3.768,3.768,0,0,1,.1.629h.055a2.909,2.909,0,0,1,.116-.629L-29.008-7Zm7.109,7h-1.121V-3.992q0-2.229-1.627-2.229a1.765,1.765,0,0,0-1.391.632,2.344,2.344,0,0,0-.55,1.6V0H-26.6V-7h1.121v1.162h.027a2.526,2.526,0,0,1,2.3-1.326,2.142,2.142,0,0,1,1.757.742,3.3,3.3,0,0,1,.608,2.143Zm3.233,0h-1.121V-10.363h1.121Zm5.2.164a3.247,3.247,0,0,1-2.478-.981,3.634,3.634,0,0,1-.926-2.6A3.785,3.785,0,0,1-14.8-6.173a3.465,3.465,0,0,1,2.6-.991A3.14,3.14,0,0,1-9.755-6.2a3.822,3.822,0,0,1,.878,2.673A3.761,3.761,0,0,1-9.823-.844,3.317,3.317,0,0,1-12.363.164Zm.082-6.385a2.132,2.132,0,0,0-1.709.735,3.018,3.018,0,0,0-.629,2.027A2.854,2.854,0,0,0-13.983-1.5a2.161,2.161,0,0,0,1.7.718,2.049,2.049,0,0,0,1.671-.7,3.055,3.055,0,0,0,.584-2,3.108,3.108,0,0,0-.584-2.023A2.04,2.04,0,0,0-12.281-6.221ZM-2.075,0H-3.2V-1.094h-.027A2.347,2.347,0,0,1-5.376.164,2.3,2.3,0,0,1-7.014-.39,1.918,1.918,0,0,1-7.6-1.859q0-1.962,2.311-2.283l2.1-.294q0-1.784-1.442-1.784a3.446,3.446,0,0,0-2.283.861V-6.508a4.338,4.338,0,0,1,2.379-.656q2.468,0,2.468,2.611ZM-3.2-3.541l-1.688.232a2.741,2.741,0,0,0-1.176.386,1.114,1.114,0,0,0-.4.981,1.068,1.068,0,0,0,.366.837,1.413,1.413,0,0,0,.974.325,1.8,1.8,0,0,0,1.377-.584A2.088,2.088,0,0,0-3.2-2.844ZM6.012,0H4.891V-1.189H4.864A2.588,2.588,0,0,1,2.458.164,2.615,2.615,0,0,1,.349-.776a3.856,3.856,0,0,1-.79-2.56A4.2,4.2,0,0,1,.434-6.118,2.886,2.886,0,0,1,2.765-7.164a2.244,2.244,0,0,1,2.1,1.135h.027v-4.334H6.012ZM4.891-3.165V-4.2a2,2,0,0,0-.561-1.436,1.88,1.88,0,0,0-1.422-.588A1.936,1.936,0,0,0,1.3-5.469,3.3,3.3,0,0,0,.708-3.391,2.964,2.964,0,0,0,1.271-1.48a1.843,1.843,0,0,0,1.514.7,1.915,1.915,0,0,0,1.521-.677A2.521,2.521,0,0,0,4.891-3.165ZM16.218.164A4.3,4.3,0,0,1,12.879-1.21a5.1,5.1,0,0,1-1.254-3.575A5.4,5.4,0,0,1,12.9-8.559a4.465,4.465,0,0,1,3.479-1.408A4.206,4.206,0,0,1,19.653-8.6a5.115,5.115,0,0,1,1.241,3.575A5.417,5.417,0,0,1,19.623-1.23,4.382,4.382,0,0,1,16.218.164ZM16.3-8.928a3.16,3.16,0,0,0-2.509,1.114,4.314,4.314,0,0,0-.964,2.926,4.344,4.344,0,0,0,.94,2.916,3.065,3.065,0,0,0,2.451,1.1,3.218,3.218,0,0,0,2.543-1.053,4.3,4.3,0,0,0,.93-2.946,4.5,4.5,0,0,0-.9-3A3.094,3.094,0,0,0,16.3-8.928ZM28.482,0H27.361V-3.992q0-2.229-1.627-2.229a1.765,1.765,0,0,0-1.391.632,2.344,2.344,0,0,0-.55,1.6V0H22.671V-7h1.121v1.162h.027a2.526,2.526,0,0,1,2.3-1.326,2.142,2.142,0,0,1,1.757.742,3.3,3.3,0,0,1,.608,2.143ZM40.376-8.764h-2.83V0H36.4V-8.764H33.575V-9.8h6.8ZM47.575,0H46.454V-4.033q0-2.188-1.627-2.187a1.774,1.774,0,0,0-1.381.632,2.356,2.356,0,0,0-.561,1.624V0H41.764V-10.363h1.121v4.525h.027a2.546,2.546,0,0,1,2.3-1.326q2.365,0,2.365,2.851Zm7.738-3.22H50.371A2.618,2.618,0,0,0,51-1.415a2.168,2.168,0,0,0,1.654.636,3.439,3.439,0,0,0,2.174-.779V-.506a4.063,4.063,0,0,1-2.44.67A2.959,2.959,0,0,1,50.056-.79a3.9,3.9,0,0,1-.848-2.683,3.828,3.828,0,0,1,.926-2.663,2.97,2.97,0,0,1,2.3-1.029,2.632,2.632,0,0,1,2.126.889,3.705,3.705,0,0,1,.752,2.468Zm-1.148-.95A2.281,2.281,0,0,0,53.7-5.681a1.6,1.6,0,0,0-1.282-.54,1.811,1.811,0,0,0-1.347.567,2.575,2.575,0,0,0-.684,1.483Z" transform="translate(137 27)"/>
      <path id="Path_4397" data-name="Path 4397" d="M-37.892,0h-3.953L-42.99-3.583h-5.728L-49.852,0h-3.931l5.862-16.1h4.3Zm-5.93-6.368-1.729-5.413a7.054,7.054,0,0,1-.27-1.449h-.09a6.143,6.143,0,0,1-.281,1.4l-1.752,5.458Zm11.186,5.031h-.045V5.29h-3.549V-11.5h3.549v1.729h.045a4.172,4.172,0,0,1,3.695-2.01,4.157,4.157,0,0,1,3.453,1.533,6.527,6.527,0,0,1,1.219,4.172A7.075,7.075,0,0,1-25.69-1.46,4.632,4.632,0,0,1-29.469.281,3.581,3.581,0,0,1-32.636-1.336Zm-.1-4.717v.921a2.927,2.927,0,0,0,.629,1.943,2.047,2.047,0,0,0,1.651.752,2.176,2.176,0,0,0,1.881-.938,4.528,4.528,0,0,0,.668-2.656q0-3.032-2.358-3.032a2.215,2.215,0,0,0-1.78.825A3.292,3.292,0,0,0-32.737-6.053Zm14.364,4.717h-.045V5.29h-3.549V-11.5h3.549v1.729h.045a4.172,4.172,0,0,1,3.695-2.01,4.157,4.157,0,0,1,3.453,1.533,6.527,6.527,0,0,1,1.219,4.172A7.075,7.075,0,0,1-11.427-1.46,4.632,4.632,0,0,1-15.206.281,3.581,3.581,0,0,1-18.373-1.336Zm-.1-4.717v.921a2.927,2.927,0,0,0,.629,1.943,2.047,2.047,0,0,0,1.651.752,2.176,2.176,0,0,0,1.881-.938,4.528,4.528,0,0,0,.668-2.656q0-3.032-2.358-3.032a2.215,2.215,0,0,0-1.78.825A3.292,3.292,0,0,0-18.474-6.053ZM-1.752-.618V-4.211A6.905,6.905,0,0,0,.371-2.982a6.823,6.823,0,0,0,2.313.41A5.13,5.13,0,0,0,3.88-2.7a2.8,2.8,0,0,0,.854-.343,1.494,1.494,0,0,0,.511-.517A1.289,1.289,0,0,0,5.413-4.2a1.4,1.4,0,0,0-.27-.842,2.9,2.9,0,0,0-.736-.685A7.686,7.686,0,0,0,3.3-6.334q-.64-.292-1.381-.6A7.05,7.05,0,0,1-.893-8.85a4.193,4.193,0,0,1-.927-2.74,4.364,4.364,0,0,1,.505-2.162A4.292,4.292,0,0,1,.062-15.24,6.169,6.169,0,0,1,2.078-16.1,10.358,10.358,0,0,1,4.5-16.374a14.59,14.59,0,0,1,2.229.152,8.767,8.767,0,0,1,1.791.466V-12.4a5.416,5.416,0,0,0-.882-.494,6.985,6.985,0,0,0-.983-.354,7.5,7.5,0,0,0-1.005-.208,7.114,7.114,0,0,0-.949-.067,4.949,4.949,0,0,0-1.123.118,2.881,2.881,0,0,0-.854.331,1.648,1.648,0,0,0-.539.511A1.211,1.211,0,0,0,2-11.893a1.276,1.276,0,0,0,.213.724,2.448,2.448,0,0,0,.606.606A6.436,6.436,0,0,0,3.773-10q.562.275,1.269.567a14.141,14.141,0,0,1,1.735.859A6.168,6.168,0,0,1,8.1-7.547a4,4,0,0,1,.842,1.308,4.623,4.623,0,0,1,.292,1.713A4.588,4.588,0,0,1,8.72-2.263,4.149,4.149,0,0,1,7.333-.781,6.014,6.014,0,0,1,5.3.034,11.78,11.78,0,0,1,2.841.281,13.645,13.645,0,0,1,.32.056,7.611,7.611,0,0,1-1.752-.618Zm19.665.483a5.246,5.246,0,0,1-2.37.416q-3.751,0-3.751-3.9V-8.883H9.928V-11.5h1.864v-2.482l3.538-1.011V-11.5h2.583v2.617H15.33v4.649q0,1.8,1.426,1.8a2.4,2.4,0,0,0,1.157-.326ZM25.3.281a6.182,6.182,0,0,1-4.52-1.612,5.843,5.843,0,0,1-1.645-4.374,5.843,5.843,0,0,1,1.707-4.464,6.45,6.45,0,0,1,4.616-1.612,6.107,6.107,0,0,1,4.492,1.612A5.729,5.729,0,0,1,31.58-5.907,6.081,6.081,0,0,1,29.9-1.381,6.25,6.25,0,0,1,25.3.281Zm.09-9.344a2.367,2.367,0,0,0-1.954.865,3.813,3.813,0,0,0-.7,2.448q0,3.313,2.673,3.313,2.549,0,2.549-3.4Q27.964-9.063,25.392-9.063ZM41.384-8.3a3.078,3.078,0,0,0-1.494-.348,2.152,2.152,0,0,0-1.808.848,3.7,3.7,0,0,0-.651,2.308V0H33.882V-11.5h3.549v2.134h.045A3.07,3.07,0,0,1,40.508-11.7a2.285,2.285,0,0,1,.876.135Zm11.893,3.56h-7.5q.18,2.5,3.156,2.5a6.161,6.161,0,0,0,3.335-.9V-.573a8.762,8.762,0,0,1-4.144.854A5.834,5.834,0,0,1,43.8-1.263,5.834,5.834,0,0,1,42.26-5.57a6.154,6.154,0,0,1,1.662-4.537,5.537,5.537,0,0,1,4.088-1.673A5.026,5.026,0,0,1,51.9-10.287a5.752,5.752,0,0,1,1.376,4.054ZM49.987-6.918q0-2.471-2-2.471a1.909,1.909,0,0,0-1.477.708,3.211,3.211,0,0,0-.758,1.763Z" transform="translate(133 54)"/>
    </g>
    <g id="apple" transform="translate(1082.498 7540.583)">
      <path id="Path_2590" data-name="Path 2590" d="M56.015,146.238c-5.469-.032-9.993-11.2-9.993-16.881,0-9.287,6.967-11.321,9.652-11.321a11.107,11.107,0,0,1,3.642.9,8.14,8.14,0,0,0,2.08.6,6.472,6.472,0,0,0,1.492-.484,11.957,11.957,0,0,1,4.5-1.087h.01a9.216,9.216,0,0,1,7.712,3.9l.562.845-.809.611a6.812,6.812,0,0,0-3.266,5.617,6.34,6.34,0,0,0,3.538,5.861c.507.3,1.031.619,1.031,1.307,0,.449-3.583,10.088-8.786,10.088a7.066,7.066,0,0,1-2.967-.72,6.016,6.016,0,0,0-2.641-.636,6.793,6.793,0,0,0-2.091.566,10.242,10.242,0,0,1-3.627.846Z" transform="translate(-46.022 -109.492)"/>
      <path id="Path_2591" data-name="Path 2591" d="M262.058,0c.136,4.886-3.359,8.275-6.849,8.063C254.634,4.164,258.7,0,262.058,0Z" transform="translate(-240.145)"/>
    </g>
  </g>
</svg>
