<svg xmlns="http://www.w3.org/2000/svg" width="235" height="74" viewBox="0 0 235 74">
  <g id="f-google-play" transform="translate(-1326 -7522)">
    <g id="Group_69" data-name="Group 69" transform="translate(1326.492 7522)">
      <rect id="Rectangle_20" data-name="Rectangle 20" width="235" height="74" rx="10" transform="translate(-0.492 0)" fill="#fff"/>
      <text id="Get_it_on" data-name="Get it on" transform="translate(108.508 27)" font-size="14" font-family="CeraPro-Regular, Cera Pro"><tspan x="-29.68" y="0">Get It On</tspan></text>
      <text id="Google_play" data-name="Google play" transform="translate(143.508 54)" font-size="23" font-family="CeraPro-Bold, Cera Pro" font-weight="700"><tspan x="-65.309" y="0">Google Play</tspan></text>
    </g>
    <g id="playstore" transform="translate(1354.893 7540.584)">
      <g id="Group_56" data-name="Group 56" transform="translate(2.75 0)">
        <g id="Group_55" data-name="Group 55" transform="translate(0)">
          <path id="Path_2592" data-name="Path 2592" d="M63.552.57A3.556,3.556,0,0,0,60.8.095l16.36,16.36,5.3-5.3Z" transform="translate(-60.802 0)"/>
        </g>
      </g>
      <g id="Group_58" data-name="Group 58" transform="translate(0 1.425)">
        <g id="Group_57" data-name="Group 57" transform="translate(0)">
          <path id="Path_2593" data-name="Path 2593" d="M22.71,20.116a3.555,3.555,0,0,0-.719,2.139V51.4a3.555,3.555,0,0,0,.719,2.139l16.71-16.71Z" transform="translate(-21.991 -20.116)"/>
        </g>
      </g>
      <g id="Group_60" data-name="Group 60" transform="translate(20.79 12.359)">
        <g id="Group_59" data-name="Group 59">
          <path id="Path_2594" data-name="Path 2594" d="M325.993,177.116l-4.765-2.666-5.777,5.777L321.228,186l4.766-2.667a3.565,3.565,0,0,0,0-6.221Z" transform="translate(-315.451 -174.45)"/>
        </g>
      </g>
      <g id="Group_62" data-name="Group 62" transform="translate(2.75 19.816)">
        <g id="Group_61" data-name="Group 61" transform="translate(0)">
          <path id="Path_2595" data-name="Path 2595" d="M77.174,279.711,60.815,296.07a3.531,3.531,0,0,0,2.749-.475l18.913-10.582Z" transform="translate(-60.815 -279.711)"/>
        </g>
      </g>
    </g>
  </g>
</svg>
