<svg xmlns="http://www.w3.org/2000/svg" width="235" height="74" viewBox="0 0 235 74">
  <g id="f-google-play" transform="translate(-1326 -7522)">
    <g id="Group_69" data-name="Group 69" transform="translate(1326.492 7522)">
      <rect id="Rectangle_20" data-name="Rectangle 20" width="235" height="74" rx="10" transform="translate(-0.492 0)" fill="#fff"/>
      <path id="Path_4399" data-name="Path 4399" d="M-19.53-.67a6.555,6.555,0,0,1-3.281.834,4.484,4.484,0,0,1-3.394-1.354,4.964,4.964,0,0,1-1.3-3.582,5.1,5.1,0,0,1,1.439-3.736,4.905,4.905,0,0,1,3.647-1.459,6.206,6.206,0,0,1,2.687.52v1.271a5.159,5.159,0,0,0-2.816-.752,3.519,3.519,0,0,0-2.7,1.135A4.15,4.15,0,0,0-26.3-4.854a4.153,4.153,0,0,0,.978,2.922A3.426,3.426,0,0,0-22.668-.868a4.1,4.1,0,0,0,1.989-.458V-4.074h-2.146V-5.113h3.295Zm7.752-2.55h-4.942a2.618,2.618,0,0,0,.629,1.8,2.168,2.168,0,0,0,1.654.636,3.439,3.439,0,0,0,2.174-.779V-.506a4.063,4.063,0,0,1-2.44.67A2.959,2.959,0,0,1-17.035-.79a3.9,3.9,0,0,1-.848-2.683,3.828,3.828,0,0,1,.926-2.663,2.97,2.97,0,0,1,2.3-1.029,2.632,2.632,0,0,1,2.126.889,3.705,3.705,0,0,1,.752,2.468Zm-1.148-.95A2.281,2.281,0,0,0-13.4-5.681a1.6,1.6,0,0,0-1.282-.54,1.811,1.811,0,0,0-1.347.567,2.575,2.575,0,0,0-.684,1.483Zm6.091,4.1A2.161,2.161,0,0,1-7.882.15Q-9.721.15-9.721-1.9V-6.043h-1.2V-7h1.2V-8.709L-8.6-9.071V-7h1.764v.957H-8.6V-2.1a1.635,1.635,0,0,0,.239,1,.955.955,0,0,0,.793.3,1.179,1.179,0,0,0,.731-.232ZM-.205,0H-1.354V-9.8H-.205ZM5.469-.068A2.161,2.161,0,0,1,4.423.15Q2.584.15,2.584-1.9V-6.043h-1.2V-7h1.2V-8.709l1.121-.362V-7H5.469v.957H3.705V-2.1a1.635,1.635,0,0,0,.239,1,.955.955,0,0,0,.793.3,1.179,1.179,0,0,0,.731-.232ZM14.9.164A4.3,4.3,0,0,1,11.563-1.21a5.1,5.1,0,0,1-1.254-3.575,5.4,5.4,0,0,1,1.278-3.773,4.465,4.465,0,0,1,3.479-1.408A4.206,4.206,0,0,1,18.337-8.6a5.115,5.115,0,0,1,1.241,3.575A5.417,5.417,0,0,1,18.307-1.23,4.382,4.382,0,0,1,14.9.164Zm.082-9.092a3.16,3.16,0,0,0-2.509,1.114,4.314,4.314,0,0,0-.964,2.926,4.344,4.344,0,0,0,.94,2.916A3.065,3.065,0,0,0,14.9-.868a3.218,3.218,0,0,0,2.543-1.053,4.3,4.3,0,0,0,.93-2.946,4.5,4.5,0,0,0-.9-3A3.094,3.094,0,0,0,14.984-8.928ZM27.166,0H26.045V-3.992q0-2.229-1.627-2.229a1.765,1.765,0,0,0-1.391.632,2.344,2.344,0,0,0-.55,1.6V0H21.355V-7h1.121v1.162H22.5a2.526,2.526,0,0,1,2.3-1.326,2.142,2.142,0,0,1,1.757.742,3.3,3.3,0,0,1,.608,2.143Z" transform="translate(108.508 27)"/>
      <path id="Path_4400" data-name="Path 4400" d="M-49.667-1.078A11.59,11.59,0,0,1-55.529.281,8.478,8.478,0,0,1-61.655-1.87,7.824,7.824,0,0,1-63.9-7.794a8.27,8.27,0,0,1,2.448-6.188,8.92,8.92,0,0,1,6.514-2.392,13.231,13.231,0,0,1,4.515.708v3.4a8.973,8.973,0,0,0-4.56-1.078,4.9,4.9,0,0,0-3.678,1.466,5.384,5.384,0,0,0-1.421,3.914A5.4,5.4,0,0,0-58.8-4.122a4.493,4.493,0,0,0,3.442,1.359,4.791,4.791,0,0,0,2.066-.371V-6.278h-3.223v-2.9h6.851ZM-41.4.281a6.182,6.182,0,0,1-4.52-1.612,5.843,5.843,0,0,1-1.645-4.374,5.843,5.843,0,0,1,1.707-4.464,6.45,6.45,0,0,1,4.616-1.612,6.107,6.107,0,0,1,4.492,1.612,5.729,5.729,0,0,1,1.628,4.262A6.081,6.081,0,0,1-36.8-1.381,6.25,6.25,0,0,1-41.4.281Zm.09-9.344a2.367,2.367,0,0,0-1.954.865,3.813,3.813,0,0,0-.7,2.448q0,3.313,2.673,3.313,2.549,0,2.549-3.4Q-38.74-9.063-41.311-9.063ZM-27.341.281a6.182,6.182,0,0,1-4.52-1.612,5.843,5.843,0,0,1-1.645-4.374A5.843,5.843,0,0,1-31.8-10.169a6.45,6.45,0,0,1,4.616-1.612,6.107,6.107,0,0,1,4.492,1.612,5.729,5.729,0,0,1,1.628,4.262,6.081,6.081,0,0,1-1.679,4.526A6.25,6.25,0,0,1-27.341.281Zm.09-9.344A2.367,2.367,0,0,0-29.2-8.2a3.813,3.813,0,0,0-.7,2.448q0,3.313,2.673,3.313,2.549,0,2.549-3.4Q-24.679-9.063-27.251-9.063ZM-7.485-1.314A6.506,6.506,0,0,1-9.338,3.644,7.51,7.51,0,0,1-14.706,5.4a8.509,8.509,0,0,1-3.684-.663V1.752a7.054,7.054,0,0,0,3.583,1.033,3.859,3.859,0,0,0,2.785-.949,3.405,3.405,0,0,0,.988-2.577v-.91h-.045A3.963,3.963,0,0,1-14.661.281a4.309,4.309,0,0,1-3.493-1.55,6.285,6.285,0,0,1-1.292-4.155,7,7,0,0,1,1.438-4.638,4.693,4.693,0,0,1,3.785-1.718,3.492,3.492,0,0,1,3.145,1.617h.045V-11.5h3.549Zm-3.5-4.211v-.91a2.8,2.8,0,0,0-.646-1.859,2.089,2.089,0,0,0-1.679-.769,2.171,2.171,0,0,0-1.853.921,4.33,4.33,0,0,0-.674,2.594,3.655,3.655,0,0,0,.64,2.274,2.086,2.086,0,0,0,1.752.837,2.172,2.172,0,0,0,1.78-.848A3.477,3.477,0,0,0-10.989-5.525ZM-.971,0H-4.52V-17.025H-.971ZM12.348-4.739h-7.5q.18,2.5,3.156,2.5a6.161,6.161,0,0,0,3.335-.9V-.573A8.762,8.762,0,0,1,7.193.281,5.834,5.834,0,0,1,2.869-1.263,5.834,5.834,0,0,1,1.331-5.57a6.154,6.154,0,0,1,1.662-4.537,5.537,5.537,0,0,1,4.088-1.673,5.026,5.026,0,0,1,3.891,1.494,5.752,5.752,0,0,1,1.376,4.054ZM9.057-6.918q0-2.471-2-2.471a1.909,1.909,0,0,0-1.477.708,3.211,3.211,0,0,0-.758,1.763ZM24.78-5.548V0H21.153V-16.1h5.683q6.087,0,6.087,5.132a4.924,4.924,0,0,1-1.746,3.925,6.918,6.918,0,0,1-4.666,1.5Zm0-7.771V-8.3h1.426q2.9,0,2.9-2.538,0-2.482-2.9-2.482ZM38.481,0H34.932V-17.025h3.549ZM51.037,0H47.679V-1.651h-.045A3.748,3.748,0,0,1,44.209.281a3.583,3.583,0,0,1-2.634-.949,3.4,3.4,0,0,1-.96-2.532q0-3.347,3.964-3.863L47.7-7.479q0-1.887-2.044-1.887a6.977,6.977,0,0,0-3.908,1.224v-2.673a8.792,8.792,0,0,1,2.027-.674,10.656,10.656,0,0,1,2.342-.292q4.919,0,4.919,4.908ZM47.7-4.672v-.775l-2.089.27q-1.729.225-1.729,1.561a1.29,1.29,0,0,0,.421.994,1.618,1.618,0,0,0,1.14.387,2.1,2.1,0,0,0,1.628-.691A2.5,2.5,0,0,0,47.7-4.672ZM64.794-11.5,60.122.921Q58.438,5.4,55.046,5.4a6.5,6.5,0,0,1-2.123-.292V2.28a2.985,2.985,0,0,0,1.539.416A1.922,1.922,0,0,0,56.371,1.4l.606-1.426L52.306-11.5h3.931l2.145,7A9.092,9.092,0,0,1,58.7-2.965h.045a10.728,10.728,0,0,1,.371-1.516L61.279-11.5Z" transform="translate(143.508 54)"/>
    </g>
    <g id="playstore" transform="translate(1354.893 7540.584)">
      <g id="Group_56" data-name="Group 56" transform="translate(2.75 0)">
        <g id="Group_55" data-name="Group 55" transform="translate(0)">
          <path id="Path_2592" data-name="Path 2592" d="M63.552.57A3.556,3.556,0,0,0,60.8.095l16.36,16.36,5.3-5.3Z" transform="translate(-60.802 0)"/>
        </g>
      </g>
      <g id="Group_58" data-name="Group 58" transform="translate(0 1.425)">
        <g id="Group_57" data-name="Group 57" transform="translate(0)">
          <path id="Path_2593" data-name="Path 2593" d="M22.71,20.116a3.555,3.555,0,0,0-.719,2.139V51.4a3.555,3.555,0,0,0,.719,2.139l16.71-16.71Z" transform="translate(-21.991 -20.116)"/>
        </g>
      </g>
      <g id="Group_60" data-name="Group 60" transform="translate(20.79 12.359)">
        <g id="Group_59" data-name="Group 59">
          <path id="Path_2594" data-name="Path 2594" d="M325.993,177.116l-4.765-2.666-5.777,5.777L321.228,186l4.766-2.667a3.565,3.565,0,0,0,0-6.221Z" transform="translate(-315.451 -174.45)"/>
        </g>
      </g>
      <g id="Group_62" data-name="Group 62" transform="translate(2.75 19.816)">
        <g id="Group_61" data-name="Group 61" transform="translate(0)">
          <path id="Path_2595" data-name="Path 2595" d="M77.174,279.711,60.815,296.07a3.531,3.531,0,0,0,2.749-.475l18.913-10.582Z" transform="translate(-60.815 -279.711)"/>
        </g>
      </g>
    </g>
  </g>
</svg>
