<svg xmlns="http://www.w3.org/2000/svg" xmlns:xlink="http://www.w3.org/1999/xlink" width="293.999" height="57.575" viewBox="0 0 293.999 57.575">
  <defs>
    <linearGradient id="linear-gradient" x1="0.5" x2="0.5" y2="1" gradientUnits="objectBoundingBox">
      <stop offset="0" stop-color="#f7e8de"/>
      <stop offset="1" stop-color="#bad5fd"/>
    </linearGradient>
  </defs>
  <g id="footer-logo" transform="translate(-360.001 -7528.385)">
    <g id="Group_2" data-name="Group 2" transform="translate(-1289.523 12596.609)">
      <path id="Path_1" data-name="Path 1" d="M1649.524-4811.138l.083,35.112h40.543Z" transform="translate(0 -234.671)" fill="#e9b890"/>
      <g id="Group_1" data-name="Group 1" transform="translate(1649.526 -5068.224)">
        <path id="Path_2" data-name="Path 2" d="M1689.684-5053.238a20.661,20.661,0,0,0-6.806-10.241,19.969,19.969,0,0,0-12.619-4.282,20.119,20.119,0,0,0-14.321,5.932,20.118,20.118,0,0,0-5.933,14.321v37.2l31.247-20.193a19.966,19.966,0,0,0,8.275-10.445A20.666,20.666,0,0,0,1689.684-5053.238Zm-19.367,15.3a9.592,9.592,0,0,1-9.592-9.592h0a9.592,9.592,0,0,1,9.592-9.592h0a9.591,9.591,0,0,1,9.592,9.59v0a9.591,9.591,0,0,1-9.591,9.591Z" transform="translate(-1649.964 5067.803)" fill="url(#linear-gradient)"/>
        <path id="Path_3" data-name="Path 3" d="M1669.835-5068.224a20.3,20.3,0,0,0-20.295,20.295v37.28l31.311-20.235C1697.84-5041.864,1690.064-5068.224,1669.835-5068.224Zm-20.214,57.423v-37.128a20.088,20.088,0,0,1,1.589-7.868,20.142,20.142,0,0,1,4.327-6.425,20.131,20.131,0,0,1,6.425-4.327,20.08,20.08,0,0,1,7.868-1.589,19.924,19.924,0,0,1,12.593,4.272,19.88,19.88,0,0,1,4.192,4.61,20.959,20.959,0,0,1,2.6,5.611,20.949,20.949,0,0,1,.863,6.124,19.862,19.862,0,0,1-1.02,6.148,19.925,19.925,0,0,1-8.257,10.423Z" transform="translate(-1649.54 5068.224)" fill="url(#linear-gradient)"/>
      </g>
    </g>
    <text id="Ryde_Luxury_" data-name="Ryde Luxury " transform="translate(436 7568)" fill="#fff" font-size="29" font-family="CeraPro-Bold, Cera Pro" font-weight="700" letter-spacing="0.068em"><tspan x="0" y="0">RYDE LUXURY </tspan></text>
  </g>
</svg>
