<svg xmlns="http://www.w3.org/2000/svg" xmlns:xlink="http://www.w3.org/1999/xlink" width="288.255" height="57.575" viewBox="0 0 288.255 57.575">
  <defs>
    <linearGradient id="linear-gradient" x1="0.5" x2="0.5" y2="1" gradientUnits="objectBoundingBox">
      <stop offset="0" stop-color="#f7e8de"/>
      <stop offset="1" stop-color="#bad5fd"/>
    </linearGradient>
  </defs>
  <g id="footer-logo" transform="translate(-360.001 -7528.385)">
    <g id="Group_2" data-name="Group 2" transform="translate(-1289.523 12596.609)">
      <path id="Path_1" data-name="Path 1" d="M1649.524-4811.138l.083,35.112h40.543Z" transform="translate(0 -234.671)" fill="#e9b890"/>
      <g id="Group_1" data-name="Group 1" transform="translate(1649.526 -5068.224)">
        <path id="Path_2" data-name="Path 2" d="M1689.684-5053.238a20.661,20.661,0,0,0-6.806-10.241,19.969,19.969,0,0,0-12.619-4.282,20.119,20.119,0,0,0-14.321,5.932,20.118,20.118,0,0,0-5.933,14.321v37.2l31.247-20.193a19.966,19.966,0,0,0,8.275-10.445A20.666,20.666,0,0,0,1689.684-5053.238Zm-19.367,15.3a9.592,9.592,0,0,1-9.592-9.592h0a9.592,9.592,0,0,1,9.592-9.592h0a9.591,9.591,0,0,1,9.592,9.59v0a9.591,9.591,0,0,1-9.591,9.591Z" transform="translate(-1649.964 5067.803)" fill="url(#linear-gradient)"/>
        <path id="Path_3" data-name="Path 3" d="M1669.835-5068.224a20.3,20.3,0,0,0-20.295,20.295v37.28l31.311-20.235C1697.84-5041.864,1690.064-5068.224,1669.835-5068.224Zm-20.214,57.423v-37.128a20.088,20.088,0,0,1,1.589-7.868,20.142,20.142,0,0,1,4.327-6.425,20.131,20.131,0,0,1,6.425-4.327,20.08,20.08,0,0,1,7.868-1.589,19.924,19.924,0,0,1,12.593,4.272,19.88,19.88,0,0,1,4.192,4.61,20.959,20.959,0,0,1,2.6,5.611,20.949,20.949,0,0,1,.863,6.124,19.862,19.862,0,0,1-1.02,6.148,19.925,19.925,0,0,1-8.257,10.423Z" transform="translate(-1649.54 5068.224)" fill="url(#linear-gradient)"/>
      </g>
    </g>
    <path id="Path_4401" data-name="Path 4401" d="M19.357,0H14.1L10.946-5.225q-.354-.595-.68-1.062a5.9,5.9,0,0,0-.658-.8,2.618,2.618,0,0,0-.694-.51,1.761,1.761,0,0,0-.786-.177H6.9V0H2.322V-20.306h7.25q7.392,0,7.392,5.522a5.719,5.719,0,0,1-.326,1.961,5.448,5.448,0,0,1-.92,1.621,5.834,5.834,0,0,1-1.437,1.246,7.412,7.412,0,0,1-1.876.821v.057a2.91,2.91,0,0,1,.878.46,6.287,6.287,0,0,1,.821.743,10.372,10.372,0,0,1,.758.913q.361.489.658.956ZM6.9-16.879v5.65H8.878a3.287,3.287,0,0,0,2.365-.85,2.835,2.835,0,0,0,.906-2.138q0-2.662-3.186-2.662ZM38.25-20.306,31.638-7.222V0H27.064V-7.137L20.621-20.306h5.225l3.271,7.576q.085.212.467,1.657h.057a7.377,7.377,0,0,1,.439-1.6l3.328-7.632ZM42.516,0V-20.306H49.71q10.818,0,10.818,9.9a10.009,10.009,0,0,1-2.952,7.576A10.887,10.887,0,0,1,49.71,0ZM47.09-16.582V-3.71h2.266a6.122,6.122,0,0,0,4.666-1.784,6.77,6.77,0,0,0,1.692-4.857,6.141,6.141,0,0,0-1.678-4.567,6.4,6.4,0,0,0-4.708-1.664ZM78.048,0H65.87V-20.306h11.71v3.724H70.444v4.517h6.641v3.71H70.444V-3.71h7.6Zm27.294,0H93.249V-20.306h4.574v16.6h7.519ZM126.02-8.793q0,9.147-8.524,9.147-8.27,0-8.27-8.935V-20.306h4.588V-8.524q0,4.928,3.852,4.928,3.781,0,3.781-4.758V-20.306h4.574ZM148.991,0h-5.423l-3.5-6.613a5.8,5.8,0,0,1-.411-1.359H139.6a10.292,10.292,0,0,1-.467,1.416L135.624,0h-5.452l6.471-10.153-5.919-10.153h5.565l2.9,6.089A10.521,10.521,0,0,1,139.8-12.5h.057q.17-.595.637-1.77l3.229-6.032h5.1l-6.089,10.068Zm20.947-8.793q0,9.147-8.524,9.147-8.27,0-8.27-8.935V-20.306h4.588V-8.524q0,4.928,3.852,4.928,3.781,0,3.781-4.758V-20.306h4.574ZM193.362,0h-5.253l-3.158-5.225q-.354-.595-.68-1.062a5.9,5.9,0,0,0-.658-.8,2.619,2.619,0,0,0-.694-.51,1.761,1.761,0,0,0-.786-.177H180.9V0h-4.574V-20.306h7.25q7.392,0,7.392,5.522a5.719,5.719,0,0,1-.326,1.961,5.448,5.448,0,0,1-.92,1.621,5.834,5.834,0,0,1-1.437,1.246,7.412,7.412,0,0,1-1.876.821v.057a2.91,2.91,0,0,1,.878.46,6.287,6.287,0,0,1,.821.743,10.371,10.371,0,0,1,.758.913q.361.489.658.956ZM180.9-16.879v5.65h1.982a3.287,3.287,0,0,0,2.365-.85,2.835,2.835,0,0,0,.906-2.138q0-2.662-3.186-2.662Zm31.354-3.427L205.643-7.222V0h-4.574V-7.137l-6.443-13.169h5.225l3.271,7.576q.085.212.467,1.657h.057a7.377,7.377,0,0,1,.439-1.6l3.328-7.632Z" transform="translate(436 7568)" fill="#fff"/>
  </g>
</svg>
