<svg xmlns="http://www.w3.org/2000/svg" width="278" height="88" viewBox="0 0 278 88">
  <g id="google-play" transform="translate(-1313 -4398)">
    <g id="Group_54" data-name="Group 54" transform="translate(1313.45 4397.541)">
      <rect id="Rectangle_20" data-name="Rectangle 20" width="278" height="88" rx="10" transform="translate(-0.451 0.458)"/>
      <text id="Get_it_on" data-name="Get it on" transform="translate(128.549 32.458)" fill="#fff" font-size="17" font-family="CeraPro-Regular, Cera Pro"><tspan x="-36.04" y="0">Get It On</tspan></text>
      <text id="Google_play" data-name="Google play" transform="translate(172.549 65.458)" fill="#fff" font-size="28" font-family="CeraPro-Bold, Cera Pro" font-weight="700"><tspan x="-79.506" y="0">Google Play</tspan></text>
    </g>
    <g id="playstore" transform="translate(1346.637 4420.01)">
      <g id="Group_56" data-name="Group 56" transform="translate(3.257 0)">
        <g id="Group_55" data-name="Group 55" transform="translate(0)">
          <path id="Path_2592" data-name="Path 2592" d="M64.059.676A4.211,4.211,0,0,0,60.8.112L80.179,19.489l6.28-6.28Z" transform="translate(-60.802 0)" fill="#fff"/>
        </g>
      </g>
      <g id="Group_58" data-name="Group 58" transform="translate(0 1.688)">
        <g id="Group_57" data-name="Group 57" transform="translate(0)">
          <path id="Path_2593" data-name="Path 2593" d="M22.842,20.116a4.21,4.21,0,0,0-.851,2.534V57.166a4.211,4.211,0,0,0,.851,2.534L42.634,39.908Z" transform="translate(-21.991 -20.116)" fill="#fff"/>
        </g>
      </g>
      <g id="Group_60" data-name="Group 60" transform="translate(24.623 14.638)">
        <g id="Group_59" data-name="Group 59">
          <path id="Path_2594" data-name="Path 2594" d="M327.937,177.608l-5.644-3.158-6.842,6.842,6.842,6.842,5.645-3.158a4.222,4.222,0,0,0,0-7.368Z" transform="translate(-315.451 -174.45)" fill="#fff"/>
        </g>
      </g>
      <g id="Group_62" data-name="Group 62" transform="translate(3.258 23.47)">
        <g id="Group_61" data-name="Group 61" transform="translate(0)">
          <path id="Path_2595" data-name="Path 2595" d="M80.191,279.711,60.815,299.087a4.182,4.182,0,0,0,3.256-.562l22.4-12.533Z" transform="translate(-60.815 -279.711)" fill="#fff"/>
        </g>
      </g>
    </g>
  </g>
</svg>
