<svg xmlns="http://www.w3.org/2000/svg" width="20.949" height="20.95" viewBox="0 0 20.949 20.95">
  <g id="help" transform="translate(-2869.89 697.876)">
    <path id="Path_2612" data-name="Path 2612" d="M2885.331-690.109a5.665,5.665,0,0,1,0,5.416,5.608,5.608,0,0,1-.965,1.291,5.6,5.6,0,0,1-1.291.964m-7.671-7.671a5.664,5.664,0,0,0,0,5.416,5.594,5.594,0,0,0,.965,1.291,5.6,5.6,0,0,0,1.291.964,5.664,5.664,0,0,0,5.416,0,5.6,5.6,0,0,0,1.291-.964,5.608,5.608,0,0,0,.965-1.291,5.665,5.665,0,0,0,0-5.416m-7.671-2.256a5.664,5.664,0,0,1,5.416,0m5.218,10.633a9.741,9.741,0,0,0,0-11.339,9.142,9.142,0,0,0-1.033-1.223,9.153,9.153,0,0,0-1.223-1.033,9.74,9.74,0,0,0-11.339,0,9.151,9.151,0,0,0-1.223,1.033,9.142,9.142,0,0,0-1.033,1.223,9.739,9.739,0,0,0,0,11.339,9.138,9.138,0,0,0,1.033,1.223,9.156,9.156,0,0,0,1.223,1.033,9.74,9.74,0,0,0,11.339,0,9.158,9.158,0,0,0,1.223-1.033A9.138,9.138,0,0,0,2888.292-681.731Zm-10.633-.706a5.6,5.6,0,0,1-1.291-.964,5.594,5.594,0,0,1-.965-1.291,5.664,5.664,0,0,1,0-5.416,5.607,5.607,0,0,1,.965-1.291,5.6,5.6,0,0,1,1.291-.965,5.664,5.664,0,0,1,5.416,0,5.6,5.6,0,0,1,1.291.965,5.621,5.621,0,0,1,.965,1.291,5.665,5.665,0,0,1,0,5.416,5.608,5.608,0,0,1-.965,1.291,5.6,5.6,0,0,1-1.291.964A5.664,5.664,0,0,1,2877.659-682.437Z" fill="none" stroke="#000" stroke-linecap="round" stroke-linejoin="round" stroke-width="1"/>
    <path id="Path_2613" data-name="Path 2613" d="M2886.6-678.909a5.664,5.664,0,0,1-5.416,0,5.6,5.6,0,0,1-1.291-.965,5.6,5.6,0,0,1-.965-1.291,5.664,5.664,0,0,1,0-5.416,5.615,5.615,0,0,1,.965-1.291,5.6,5.6,0,0,1,1.291-.965,5.664,5.664,0,0,1,5.416,0,5.607,5.607,0,0,1,1.291.965,5.607,5.607,0,0,1,.965,1.291" transform="translate(-3.528 -3.528)" fill="none" stroke="#000" stroke-linecap="round" stroke-linejoin="round" stroke-width="1"/>
    <line id="Line_12" data-name="Line 12" y1="2.962" x2="2.962" transform="translate(2872.442 -684.693)" fill="none" stroke="#000" stroke-linecap="round" stroke-linejoin="round" stroke-width="1"/>
    <line id="Line_13" data-name="Line 13" y1="2.962" x2="2.962" transform="translate(2874.697 -682.437)" fill="none" stroke="#000" stroke-linecap="round" stroke-linejoin="round" stroke-width="1"/>
    <line id="Line_14" data-name="Line 14" y1="2.962" x2="2.962" transform="translate(2883.075 -695.326)" fill="none" stroke="#000" stroke-linecap="round" stroke-linejoin="round" stroke-width="1"/>
    <line id="Line_15" data-name="Line 15" y1="2.962" x2="2.962" transform="translate(2885.33 -693.07)" fill="none" stroke="#000" stroke-linecap="round" stroke-linejoin="round" stroke-width="1"/>
    <line id="Line_16" data-name="Line 16" x1="2.962" y1="2.962" transform="translate(2874.697 -695.326)" fill="none" stroke="#000" stroke-linecap="round" stroke-linejoin="round" stroke-width="1"/>
    <line id="Line_17" data-name="Line 17" x1="2.962" y1="2.962" transform="translate(2872.442 -693.07)" fill="none" stroke="#000" stroke-linecap="round" stroke-linejoin="round" stroke-width="1"/>
    <path id="Path_2614" data-name="Path 2614" d="M2897.995-669.773a9.146,9.146,0,0,1-1.223,1.033l-2.962-2.962a5.614,5.614,0,0,0,1.291-.965,5.6,5.6,0,0,0,.964-1.291l2.962,2.962A9.152,9.152,0,0,1,2897.995-669.773Z" transform="translate(-10.735 -10.735)" fill="none" stroke="#000" stroke-linecap="round" stroke-linejoin="round" stroke-width="1"/>
  </g>
</svg>
