<svg xmlns="http://www.w3.org/2000/svg" width="63.726" height="63.69" viewBox="0 0 63.726 63.69">
  <g id="instant-quote" transform="translate(-722.596 -1069.319)">
    <g id="Group_110" data-name="Group 110" transform="translate(746.705 1080.822)">
      <path id="Path_4348" data-name="Path 4348" d="M793.146,1122.668v4.129h-3.365v-4.2a8.872,8.872,0,0,1-6.349-4.684l2.533-1.874q2.255,3.5,5.69,3.5a4.394,4.394,0,0,0,2.637-.729,2.283,2.283,0,0,0,1.006-1.943,2.174,2.174,0,0,0-.711-1.665,8.842,8.842,0,0,0-2.377-1.388l-2.394-.937q-5.031-1.978-5.031-5.794a4.974,4.974,0,0,1,1.371-3.539,6.6,6.6,0,0,1,3.626-1.908v-4.129h3.365v4.059a7.3,7.3,0,0,1,5.274,3.851l-2.5,1.873a5.143,5.143,0,0,0-4.3-2.568,4.021,4.021,0,0,0-2.29.607,1.952,1.952,0,0,0-.9,1.718,2.1,2.1,0,0,0,.625,1.578,7.394,7.394,0,0,0,2.151,1.266l2.568.972q5.169,1.977,5.169,5.933a5.287,5.287,0,0,1-1.578,3.92A7.284,7.284,0,0,1,793.146,1122.668Z" transform="translate(-783.432 -1097.514)" fill="#fff"/>
    </g>
    <path id="Path_4349" data-name="Path 4349" d="M785.322,1070.319H723.6v60.394a1.265,1.265,0,0,0,2.206.845l9.823-10.95h49.7Z" transform="translate(0)" fill="none" stroke="#fff" stroke-linecap="round" stroke-linejoin="round" stroke-miterlimit="10" stroke-width="2"/>
  </g>
</svg>
