<svg xmlns="http://www.w3.org/2000/svg" width="20.449" height="20.457" viewBox="0 0 20.449 20.457">
  <g id="join-as-partner" transform="translate(-3377.038 821.2)">
    <path id="Path_10" data-name="Path 10" d="M3396.987-810.975a10.461,10.461,0,0,1-.064,1.13,9.729,9.729,0,0,1-7.536,8.362,9.285,9.285,0,0,1-2.125.24,9.21,9.21,0,0,1-2.116-.24h-.008a9.73,9.73,0,0,1-7.536-8.362,10.587,10.587,0,0,1-.064-1.13,9.6,9.6,0,0,1,1.307-4.858,9.7,9.7,0,0,1,8.418-4.866,9.7,9.7,0,0,1,8.418,4.866A9.6,9.6,0,0,1,3396.987-810.975Z" fill="none" stroke="#000" stroke-miterlimit="10" stroke-width="1"/>
    <path id="Path_11" data-name="Path 11" d="M3396-815.834a9.719,9.719,0,0,1-8.418,4.858,9.72,9.72,0,0,1-8.418-4.858,9.7,9.7,0,0,1,8.418-4.866A9.7,9.7,0,0,1,3396-815.834Z" transform="translate(-0.323)" fill="none" stroke="#000" stroke-miterlimit="10" stroke-width="1"/>
    <g id="Group_9" data-name="Group 9" transform="translate(3377.602 -809.973)">
      <path id="Path_12" data-name="Path 12" d="M3399.781-807.192a9.729,9.729,0,0,1-7.536,8.362,6.4,6.4,0,0,1-.3-1.932,6.562,6.562,0,0,1,6.566-6.558A6.005,6.005,0,0,1,3399.781-807.192Z" transform="translate(-3380.46 807.32)" fill="none" stroke="#000" stroke-miterlimit="10" stroke-width="1"/>
      <path id="Path_13" data-name="Path 13" d="M3385.45-800.762a6.668,6.668,0,0,1-.288,1.932h-.008a9.729,9.729,0,0,1-7.536-8.362,6.082,6.082,0,0,1,1.275-.128A6.555,6.555,0,0,1,3385.45-800.762Z" transform="translate(-3377.618 807.32)" fill="none" stroke="#000" stroke-miterlimit="10" stroke-width="1"/>
    </g>
  </g>
</svg>
