<svg xmlns="http://www.w3.org/2000/svg" width="21.425" height="21.425" viewBox="0 0 21.425 21.425">
  <g id="languages" transform="translate(-2853.448 825.34)">
    <path id="Path_6" data-name="Path 6" d="M2864.159-804.415a10.185,10.185,0,0,1-7.56-3.348,10.169,10.169,0,0,1-2.652-6.865,10.163,10.163,0,0,1,2.652-6.863,10.185,10.185,0,0,1,7.56-3.348,10.186,10.186,0,0,1,7.561,3.348,10.163,10.163,0,0,1,2.652,6.863,10.169,10.169,0,0,1-2.652,6.865A10.186,10.186,0,0,1,2864.159-804.415Z" transform="translate(0 0)" fill="none" stroke="#000" stroke-miterlimit="10" stroke-width="1"/>
    <ellipse id="Ellipse_2" data-name="Ellipse 2" cx="5.274" cy="10.212" rx="5.274" ry="10.212" transform="translate(2858.885 -824.84)" fill="none" stroke="#000" stroke-miterlimit="10" stroke-width="1"/>
    <g id="Group_5" data-name="Group 5" transform="translate(2856.6 -824.84)">
      <path id="Path_7" data-name="Path 7" d="M2873.617-755.453a10.186,10.186,0,0,1-7.56-3.348,10.26,10.26,0,0,1,2.869-2.21,10.173,10.173,0,0,1,4.691-1.139,10.15,10.15,0,0,1,4.693,1.141,10.184,10.184,0,0,1,2.869,2.207A10.188,10.188,0,0,1,2873.617-755.453Z" transform="translate(-2866.058 775.878)" fill="none" stroke="#000" stroke-miterlimit="10" stroke-width="1"/>
      <path id="Path_8" data-name="Path 8" d="M2873.617-818.143a10.183,10.183,0,0,1-4.693-1.139,10.252,10.252,0,0,1-2.867-2.21,10.186,10.186,0,0,1,7.56-3.348,10.188,10.188,0,0,1,7.562,3.348,10.246,10.246,0,0,1-2.867,2.207A10.166,10.166,0,0,1,2873.617-818.143Z" transform="translate(-2866.058 824.84)" fill="none" stroke="#000" stroke-miterlimit="10" stroke-width="1"/>
    </g>
    <line id="Line_2" data-name="Line 2" x1="20.425" transform="translate(2853.948 -814.629)" fill="none" stroke="#000" stroke-miterlimit="10" stroke-width="1"/>
  </g>
</svg>
