<svg xmlns="http://www.w3.org/2000/svg" width="267.442" height="42.574" viewBox="0 0 267.442 42.574">
  <g id="Group_219" data-name="Group 219" transform="translate(-805.558 -2045.547)">
    <g id="logo" transform="translate(748 2030)">
      <path id="Path_1" data-name="Path 1" d="M1275.1,86.246l.061,25.964h29.98Z" transform="translate(-1217.543 -54.125)" fill="#e9b890"/>
      <path id="Path_2" data-name="Path 2" d="M1304.939-175a15.28,15.28,0,0,0-5.033-7.573,14.765,14.765,0,0,0-9.331-3.166,14.877,14.877,0,0,0-10.59,4.386,14.877,14.877,0,0,0-4.387,10.59v27.511l23.106-14.932a14.764,14.764,0,0,0,6.119-7.724A15.282,15.282,0,0,0,1304.939-175Zm-14.321,11.314a7.093,7.093,0,0,1-7.093-7.093,7.093,7.093,0,0,1,7.093-7.093,7.092,7.092,0,0,1,7.093,7.093A7.092,7.092,0,0,1,1290.619-163.687Z" transform="translate(-1218.01 201.316)" fill="#1b1534"/>
      <path id="Path_3" data-name="Path 3" d="M1290.105-186.24a15.007,15.007,0,0,0-15.007,15.007v27.567l23.153-14.963C1310.814-166.748,1305.064-186.24,1290.105-186.24Zm-14.947,42.462v-27.455a14.856,14.856,0,0,1,1.175-5.818,14.892,14.892,0,0,1,3.2-4.751,14.883,14.883,0,0,1,4.751-3.2,14.854,14.854,0,0,1,5.818-1.175,14.733,14.733,0,0,1,9.312,3.159,14.7,14.7,0,0,1,3.1,3.409,15.5,15.5,0,0,1,1.922,4.149,15.493,15.493,0,0,1,.638,4.528,14.687,14.687,0,0,1-.754,4.546,14.735,14.735,0,0,1-6.106,7.708Z" transform="translate(-1217.539 201.787)"/>
      <text id="Ryde_Luxury_" data-name="Ryde Luxury " transform="translate(102 51)" font-size="29" font-family="SegoeUI-Bold, Segoe UI" font-weight="700" letter-spacing="0.068em"><tspan x="0" y="0">RYDE LUXURY </tspan></text>
    </g>
  </g>
</svg>