<svg xmlns="http://www.w3.org/2000/svg" width="39.559" height="49.941" viewBox="0 0 39.559 49.941">
  <g id="peace-of-mind" transform="translate(421.919 1109.217)">
    <g id="Group_114" data-name="Group 114" transform="translate(-420.723 -1108.021)">
      <circle id="Ellipse_93" data-name="Ellipse 93" cx="12.311" cy="12.311" r="12.311" transform="translate(6.273 6.273)" fill="none" stroke="#000" stroke-miterlimit="10" stroke-width="2"/>
      <path id="Path_4360" data-name="Path 4360" d="M-362.769-1038.2l3.279,3.279,7.85-7.85" transform="translate(375.788 1057.428)" fill="none" stroke="#000" stroke-miterlimit="10" stroke-width="2"/>
      <path id="Path_4361" data-name="Path 4361" d="M-397.16-1070.854l-4.979-1.925-4.979,1.925-3.35-4.156-5.275-.823-.823-5.274-4.157-3.35,1.925-4.98-1.925-4.979,4.156-3.35.823-5.275,5.275-.823,3.35-4.156,4.979,1.925,4.979-1.925,3.35,4.156,5.275.823.823,5.275,4.157,3.35-1.925,4.979,1.925,4.98-4.157,3.35-.823,5.274-5.275.823Z" transform="translate(420.723 1108.021)" fill="none" stroke="#000" stroke-miterlimit="10" stroke-width="2"/>
    </g>
    <path id="Path_4362" data-name="Path 4362" d="M-358.024-947.766v10.936l-8.169-5.124-8.169,5.124v-10.936" transform="translate(-35.947 -124.254)" fill="none" stroke="#000" stroke-miterlimit="10" stroke-width="2"/>
  </g>
</svg>
