<svg xmlns="http://www.w3.org/2000/svg" width="51.159" height="40.677" viewBox="0 0 51.159 40.677">
  <g id="trusted-professionals" transform="translate(-2972.758 615.64)">
    <circle id="Ellipse_34" data-name="Ellipse 34" cx="6.168" cy="6.168" r="6.168" transform="translate(2978.165 -603.96)" fill="none" stroke="#000" stroke-miterlimit="10" stroke-width="2"/>
    <path id="Path_2615" data-name="Path 2615" d="M2973.758-523.193v-10.8a1.691,1.691,0,0,1,1.691-1.691h17.768a1.691,1.691,0,0,1,1.691,1.691v10.8" transform="translate(0 -52.237)" fill="none" stroke="#000" stroke-miterlimit="10" stroke-width="2"/>
    <path id="Path_2616" data-name="Path 2616" d="M3005.008-608.26v-4.576a1.8,1.8,0,0,1,1.8-1.8h34.975a1.8,1.8,0,0,1,1.8,1.8v27.089a1.8,1.8,0,0,1-1.8,1.8h-21.9" transform="translate(-20.674)" fill="none" stroke="#000" stroke-miterlimit="10" stroke-width="2"/>
    <line id="Line_18" data-name="Line 18" x2="15.228" transform="translate(2997.011 -599.292)" fill="none" stroke="#000" stroke-miterlimit="10" stroke-width="2"/>
    <line id="Line_19" data-name="Line 19" x2="15.228" transform="translate(2997.011 -592.209)" fill="none" stroke="#000" stroke-miterlimit="10" stroke-width="2"/>
    <line id="Line_20" data-name="Line 20" x2="15.228" transform="translate(2997.011 -606.374)" fill="none" stroke="#000" stroke-miterlimit="10" stroke-width="2"/>
    <rect id="Rectangle_78" data-name="Rectangle 78" width="4" height="8" transform="translate(3002.712 -583.963)" fill="none" stroke="#000" stroke-width="2"/>
  </g>
</svg>
